<svg xmlns="http://www.w3.org/2000/svg" width="38" height="31" viewBox="0 0 38 31">
  <metadata><?xpacket begin="﻿" id="W5M0MpCehiHzreSzNTczkc9d"?>
<x:xmpmeta xmlns:x="adobe:ns:meta/" x:xmptk="Adobe XMP Core 5.6-c138 79.159824, 2016/09/14-01:09:01        ">
   <rdf:RDF xmlns:rdf="http://www.w3.org/1999/02/22-rdf-syntax-ns#">
      <rdf:Description rdf:about=""/>
   </rdf:RDF>
</x:xmpmeta>
                                                                                                    
                                                                                                    
                                                                                                    
                                                                                                    
                                                                                                    
                                                                                                    
                                                                                                    
                                                                                                    
                                                                                                    
                                                                                                    
                                                                                                    
                                                                                                    
                                                                                                    
                                                                                                    
                                                                                                    
                                                                                                    
                                                                                                    
                                                                                                    
                                                                                                    
                                                                                                    
                           
<?xpacket end="w"?></metadata>
<defs>
    <style>
      .cls-1 {
        fill: #04a0fa;
        fill-rule: evenodd;
      }
    </style>
  </defs>
  <path class="cls-1" d="M993.455,49.663a3.041,3.041,0,0,1-4.263.785L976.6,41.63a3.1,3.1,0,0,1-1.318-2.657A11.067,11.067,0,0,1,960.8,40.538a11.366,11.366,0,0,1-2.824-15.687A11.078,11.078,0,0,1,973.484,22a11.376,11.376,0,0,1,3.668,14.23,3.029,3.029,0,0,1,2.932.308l12.6,8.817A3.122,3.122,0,0,1,993.455,49.663Zm-18.67-19.8a7.809,7.809,0,0,0-3.22-5.055,7.726,7.726,0,0,0-10.814,1.988,7.93,7.93,0,0,0,1.969,10.938,7.723,7.723,0,0,0,10.812-1.989A7.885,7.885,0,0,0,974.785,29.859Z" transform="translate(-956 -20)"/>
</svg>
